<svg id="Logo" xmlns="http://www.w3.org/2000/svg" viewBox="0 0 370.87 137.6"><defs><style>.cls-1{fill:#fff;}</style></defs><path id="_Compound_Path_" data-name="&lt;Compound Path&gt;" class="cls-1" d="M102.29,137.56H97.2l14.2-32.77h4.17l14.07,32.77h-5.18l-3.34-8.06H105.57Zm4.9-12.08h12.27l-6.11-15.37Zm51,11a11.59,11.59,0,0,0,4-2.89,11.9,11.9,0,0,0,2.34-4.15,15.4,15.4,0,0,0,.76-4.83V104.79h-4.58v19.53a13.35,13.35,0,0,1-.42,3.31,8.44,8.44,0,0,1-1.37,2.94,6.82,6.82,0,0,1-2.52,2.08,9.78,9.78,0,0,1-7.7,0,6.91,6.91,0,0,1-2.5-2.08,8.63,8.63,0,0,1-1.37-2.94,13.83,13.83,0,0,1-.41-3.31V104.79h-4.58V124.6a15.4,15.4,0,0,0,.76,4.83,11.9,11.9,0,0,0,2.34,4.15,11.4,11.4,0,0,0,4,2.89,15.16,15.16,0,0,0,11.29,0Zm20.71-31.68h11.25a22,22,0,0,1,6.29.93,16.92,16.92,0,0,1,5.7,2.91,15,15,0,0,1,4.11,5.09,16.29,16.29,0,0,1,1.58,7.45,15.8,15.8,0,0,1-1.58,7.29,15.16,15.16,0,0,1-4.11,5.09,17.72,17.72,0,0,1-5.7,3,20.81,20.81,0,0,1-6.29,1H178.92Zm4.59,28.74h5.73a17.55,17.55,0,0,0,5.49-.83,12.77,12.77,0,0,0,4.35-2.41,10.74,10.74,0,0,0,2.85-3.89,13,13,0,0,0,1-5.23,13.35,13.35,0,0,0-1-5.36,10.5,10.5,0,0,0-2.85-3.87,12.67,12.67,0,0,0-4.35-2.36,17.85,17.85,0,0,0-5.49-.81h-5.73Zm43.22-28.74h-4.58v32.77h4.58Zm47,16.37a17.11,17.11,0,0,1-1.26,6.64A15.84,15.84,0,0,1,269,133a15.63,15.63,0,0,1-5.25,3.39,18.6,18.6,0,0,1-13.2,0,15.7,15.7,0,0,1-5.22-3.39,15.48,15.48,0,0,1-3.44-5.2,18.65,18.65,0,0,1,0-13.32,14.89,14.89,0,0,1,3.44-5.15,15.55,15.55,0,0,1,5.22-3.33,18.9,18.9,0,0,1,13.2,0,15.48,15.48,0,0,1,5.25,3.33,15.22,15.22,0,0,1,3.46,5.15A17.21,17.21,0,0,1,273.68,121.16Zm-4.72,0a13.86,13.86,0,0,0-.84-4.83,12.19,12.19,0,0,0-2.38-4,11.26,11.26,0,0,0-3.72-2.72,11.81,11.81,0,0,0-4.92-1,11.65,11.65,0,0,0-4.87,1,11,11,0,0,0-3.7,2.72,12.32,12.32,0,0,0-2.36,4,13.86,13.86,0,0,0-.84,4.83,14,14,0,0,0,.84,4.89,11.93,11.93,0,0,0,2.38,4,11,11,0,0,0,3.7,2.67,11.67,11.67,0,0,0,4.85,1,12,12,0,0,0,4.89-1,10.92,10.92,0,0,0,3.75-2.67,11.93,11.93,0,0,0,2.38-4A14,14,0,0,0,269,121.16ZM0,72H10.62a36,36,0,0,0,0-72H0ZM102.43,0H91.81a36,36,0,0,0,0,72h10.62Zm47.8,0h-26V72h26a36,36,0,0,0,0-72Zm0,61.09H135.14V10.92h15.09a25.09,25.09,0,1,1,0,50.17Zm66.49-38.91a24.95,24.95,0,1,0,24.95,24.94A25,25,0,0,0,216.72,22.18Zm0,39.89a15,15,0,1,1,15-15A15,15,0,0,1,216.72,62.07Zm32,10h10.91V0H248.73ZM294,22.18a24.82,24.82,0,0,0-14.27,4.5V0H268.81V72.09h10.94V67.58A24.94,24.94,0,1,0,294,22.18Zm0,39.9a15,15,0,0,1-14.27-10.31,14.79,14.79,0,0,1,0-9.48A15,15,0,1,1,294,62.08ZM359,22.19l-14.22,32-14.22-32H318.59l20.18,45.36-.4.88-.15.31-4.37,9.87,0,.08a5.84,5.84,0,0,1-7.68,3l-1.57-.7-3.05,6.85-1.35,3h0L324,92.53a14.13,14.13,0,0,0,18.63-7.17c0-.06,25.85-57.75,28.27-63.17Z"/></svg>