<svg width="25" height="25" viewBox="0 0 25 25" fill="none" xmlns="http://www.w3.org/2000/svg">
<path fill-rule="evenodd" clip-rule="evenodd" d="M11.0858 6.73962C11.8668 5.95857 13.1332 5.95857 13.9142 6.73962L18.1569 10.9823C18.9379 11.7633 18.9379 13.0296 18.1569 13.8107L9.67157 22.296C8.89053 23.077 7.6242 23.077 6.84315 22.296L2.60051 18.0533C1.81946 17.2723 1.81946 16.006 2.60051 15.2249L11.0858 6.73962ZM16.7426 12.3965L12.5 8.15384L4.01472 16.6391L8.25736 20.8818L16.7426 12.3965Z" fill="white"/>
<path d="M13.2135 7.35556L17.0538 3.51529C17.249 3.32003 17.5656 3.32003 17.7609 3.51529L21.318 7.07239C21.5132 7.26765 21.5132 7.58424 21.318 7.7795L17.4777 11.6198" stroke="white" stroke-width="2"/>
</svg>
