<svg width="41" height="41" viewBox="0 0 41 41" fill="none" xmlns="http://www.w3.org/2000/svg">
<path d="M20.5 13.4689V3.72949" stroke="white" stroke-width="1.5" stroke-linecap="round"/>
<path d="M14.8011 21.0329C14.8011 22.5427 13.5771 23.7667 12.0673 23.7667C10.5575 23.7667 9.3335 22.5427 9.3335 21.0329C9.3335 19.523 10.5575 18.2991 12.0673 18.2991C13.5771 18.2991 14.8011 19.523 14.8011 21.0329Z" stroke="white" stroke-width="1.5"/>
<path d="M30.1487 20.283C29.7345 20.283 29.3987 20.6188 29.3987 21.033C29.3987 21.4472 29.7345 21.783 30.1487 21.783V20.283ZM31.4808 21.783C31.895 21.783 32.2308 21.4472 32.2308 21.033C32.2308 20.6188 31.895 20.283 31.4808 20.283L31.4808 21.783ZM27.8696 23.8941C27.8696 24.3083 28.2053 24.6441 28.6196 24.6441C29.0338 24.6441 29.3696 24.3083 29.3696 23.8941H27.8696ZM29.3696 22.4218C29.3696 22.0076 29.0338 21.6718 28.6196 21.6718C28.2053 21.6718 27.8696 22.0076 27.8696 22.4218H29.3696ZM27.0904 21.783C27.5046 21.783 27.8404 21.4472 27.8404 21.033C27.8404 20.6188 27.5046 20.283 27.0904 20.283V21.783ZM25.7583 20.283C25.3441 20.283 25.0083 20.6188 25.0083 21.033C25.0083 21.4472 25.3441 21.783 25.7583 21.783V20.283ZM29.3696 18.1719C29.3696 17.7577 29.0338 17.4219 28.6196 17.4219C28.2053 17.4219 27.8696 17.7577 27.8696 18.1719L29.3696 18.1719ZM27.8696 19.6442C27.8696 20.0584 28.2053 20.3942 28.6196 20.3942C29.0338 20.3942 29.3696 20.0584 29.3696 19.6442L27.8696 19.6442ZM30.1487 21.783L31.4808 21.783L31.4808 20.283L30.1487 20.283V21.783ZM29.3696 23.8941V22.4218H27.8696V23.8941H29.3696ZM27.0904 20.283H25.7583V21.783H27.0904V20.283ZM27.8696 18.1719L27.8696 19.6442L29.3696 19.6442L29.3696 18.1719L27.8696 18.1719Z" fill="white"/>
<path d="M8.31693 14.8335L8.48389 16.3242L8.31693 14.8335ZM20.5 13.469L20.6669 11.9783L20.5 11.9596L20.333 11.9783L20.5 13.469ZM11.192 32.4884L12.2527 33.5491H12.2527L11.192 32.4884ZM7.2777 32.926L6.47746 34.1947H6.47746L7.2777 32.926ZM6.98483 32.7413L6.18459 34.01H6.18459L6.98483 32.7413ZM32.6831 14.8335L32.85 13.3428V13.3428L32.6831 14.8335ZM29.808 32.4884L28.7473 33.5491L29.808 32.4884ZM33.7223 32.926L34.5226 34.1947L33.7223 32.926ZM34.0152 32.7413L34.8154 34.01H34.8154L34.0152 32.7413ZM7.01294 30.0726V17.9691H4.01294V30.0726H7.01294ZM8.48389 16.3242L20.6669 14.9597L20.333 11.9783L8.14998 13.3428L8.48389 16.3242ZM14.3189 27.2403L10.1314 31.4278L12.2527 33.5491L16.4402 29.3616L14.3189 27.2403ZM8.07795 31.6573L7.78508 31.4726L6.18459 34.01L6.47746 34.1947L8.07795 31.6573ZM17.6106 25.8768C16.3759 25.8768 15.1919 26.3673 14.3189 27.2403L16.4402 29.3616C16.7506 29.0512 17.1716 28.8768 17.6106 28.8768V25.8768ZM7.01294 17.9691C7.01294 17.1262 7.64629 16.418 8.48389 16.3242L8.14998 13.3428C5.79422 13.6067 4.01294 15.5986 4.01294 17.9691H7.01294ZM10.1314 31.4278C9.58456 31.9746 8.73201 32.0699 8.07795 31.6573L6.47746 34.1947C8.31699 35.355 10.7148 35.087 12.2527 33.5491L10.1314 31.4278ZM4.01294 30.0726C4.01294 31.6709 4.83281 33.1573 6.18459 34.01L7.78508 31.4726C7.30445 31.1694 7.01294 30.6409 7.01294 30.0726H4.01294ZM36.9871 30.0726V17.9691H33.9871V30.0726H36.9871ZM32.85 13.3428L20.6669 11.9783L20.333 14.9597L32.5161 16.3242L32.85 13.3428ZM24.5598 29.3616L28.7473 33.5491L30.8687 31.4278L26.6812 27.2403L24.5598 29.3616ZM34.5226 34.1947L34.8154 34.01L33.2149 31.4726L32.9221 31.6573L34.5226 34.1947ZM23.3895 28.8768C23.8284 28.8768 24.2494 29.0512 24.5598 29.3616L26.6812 27.2403C25.8081 26.3673 24.6241 25.8768 23.3895 25.8768V28.8768ZM36.9871 17.9691C36.9871 15.5986 35.2058 13.6067 32.85 13.3428L32.5161 16.3242C33.3537 16.418 33.9871 17.1262 33.9871 17.9691H36.9871ZM28.7473 33.5491C30.2852 35.087 32.683 35.355 34.5226 34.1947L32.9221 31.6573C32.268 32.0699 31.4155 31.9746 30.8687 31.4278L28.7473 33.5491ZM33.9871 30.0726C33.9871 30.6409 33.6956 31.1694 33.2149 31.4726L34.8154 34.01C36.1672 33.1573 36.9871 31.6709 36.9871 30.0726H33.9871ZM23.3895 25.8768H17.6106V28.8768H23.3895V25.8768Z" fill="white"/>
</svg>