<svg width="151" height="39" viewBox="0 0 151 39" fill="none" xmlns="http://www.w3.org/2000/svg">
<path d="M15.8161 0.869629L5.58813 11.0276L10.7027 16.1077L20.9307 5.94977L15.8161 0.869629Z" fill="white"/>
<path d="M15.8103 23.2847L5.58936 33.4496L10.7074 38.5274L20.9284 28.3625L15.8103 23.2847Z" fill="white"/>
<path d="M26.0406 16.1079H0.478271V23.2895H26.0406V16.1079Z" fill="white"/>
<path d="M45.0929 11.6229C42.5339 11.6229 41.0136 12.8589 41.0054 14.5445C40.9833 16.4153 42.992 17.1923 44.8399 17.6338L46.9594 18.1592C50.3544 18.9583 53.5837 20.7325 53.5977 24.6209C53.5884 28.5758 50.4383 31.255 45.0358 31.255C39.7755 31.255 36.4295 28.7482 36.2698 24.2901H40.2954C40.4598 26.6432 42.4371 27.7813 44.9961 27.7813C47.6659 27.7813 49.4928 26.5011 49.5149 24.586C49.4928 22.8468 47.8933 22.0872 45.445 21.4745L42.8859 20.8163C39.1622 19.8634 36.8609 18.0136 36.8609 14.7915C36.8515 10.8273 40.4109 8.1748 45.1477 8.1748C49.9603 8.1748 53.2118 10.8587 53.283 14.6458H49.3459C49.1407 12.7482 47.5283 11.6229 45.0929 11.6229Z" fill="white"/>
<path d="M55.0154 22.5698C55.0154 17.3569 58.1655 13.875 63.1285 13.875C68.0822 13.875 71.2335 17.3581 71.2335 22.5698C71.2335 27.7735 68.0833 31.2425 63.1285 31.2425C58.1655 31.2472 55.0154 27.7735 55.0154 22.5698ZM67.1985 22.5605C67.1985 19.484 65.8519 17.0214 63.1507 17.0214C60.4097 17.0214 59.0632 19.484 59.0632 22.5605C59.0632 25.637 60.4097 28.0693 63.1507 28.0693C65.8519 28.0693 67.1985 25.637 67.1985 22.5605Z" fill="white"/>
<path d="M83.6916 14.0947H87.6858V30.9159H83.8117V27.9279H83.638C82.865 29.8128 81.079 31.1373 78.5421 31.1373C75.2183 31.1373 72.9041 28.8471 72.9041 24.8083V14.0959H76.8889V24.1944C76.8889 26.3309 78.1643 27.6775 80.088 27.6775C81.8519 27.6775 83.6869 26.4066 83.6869 23.8461V14.0959H83.6916V14.0947Z" fill="white"/>
<path d="M93.9687 30.9158H89.9827V14.0946H93.795V16.9544H93.9909C94.7638 15.0824 96.5103 13.8779 99.0378 13.8779C102.534 13.8779 104.85 16.1774 104.84 20.2068V30.9193H100.854V20.8208C100.854 18.5737 99.6196 17.2282 97.5537 17.2282C95.4517 17.2282 93.9769 18.6319 93.9769 21.0596V30.9158H93.9687Z" fill="white"/>
<path d="M106.641 22.5298C106.641 16.9243 109.72 13.8793 113.634 13.8793C116.62 13.8793 117.865 15.6627 118.478 16.8812H118.643V8.48926H122.637V30.916H118.714V28.2681H118.478C117.847 29.4948 116.532 31.2118 113.626 31.2118C109.632 31.2118 106.641 28.0689 106.641 22.5298ZM118.714 22.5077C118.714 19.246 117.304 17.1317 114.737 17.1317C112.075 17.1317 110.711 19.3788 110.711 22.5077C110.711 25.6588 112.107 27.9583 114.737 27.9583C117.287 27.9583 118.714 25.7694 118.714 22.5077Z" fill="white"/>
<path d="M129.297 8.48926H125.21V30.916H129.297V8.48926Z" fill="white"/>
<path d="M131.865 30.916V8.48926H139.677C146.395 8.48926 150.474 12.6957 150.474 19.6828C150.474 26.692 146.394 30.9206 139.525 30.9206H131.865V30.916ZM139.316 27.4026C144.026 27.4026 146.421 24.8387 146.421 19.6828C146.421 14.5456 144.026 12.0073 139.436 12.0073H135.948V27.4026H139.316Z" fill="white"/>
</svg>
