<svg width="64" height="65" viewBox="0 0 64 65" fill="none" xmlns="http://www.w3.org/2000/svg">
<rect y="0.742065" width="64" height="64" rx="8" fill="white"/>
<path d="M20.0105 40.7421V32.7421C20.0105 29.5595 21.2748 26.5072 23.5252 24.2568C25.7757 22.0064 28.8279 20.7421 32.0105 20.7421C35.1931 20.7421 38.2454 22.0064 40.4958 24.2568C42.7463 26.5072 44.0106 29.5595 44.0106 32.7421V40.7421" stroke="black" stroke-width="2.66667" stroke-linecap="round" stroke-linejoin="round"/>
<path d="M44.0106 42.0755C44.0106 42.7827 43.7296 43.461 43.2295 43.9611C42.7294 44.4612 42.0511 44.7422 41.3439 44.7422H40.0106C39.3033 44.7422 38.625 44.4612 38.1249 43.9611C37.6248 43.461 37.3439 42.7827 37.3439 42.0755V38.0755C37.3439 37.3682 37.6248 36.69 38.1249 36.1899C38.625 35.6898 39.3033 35.4088 40.0106 35.4088H44.0106V42.0755ZM20.0105 42.0755C20.0105 42.7827 20.2915 43.461 20.7915 43.9611C21.2916 44.4612 21.9699 44.7422 22.6772 44.7422H24.0105C24.7178 44.7422 25.396 44.4612 25.8961 43.9611C26.3962 43.461 26.6772 42.7827 26.6772 42.0755V38.0755C26.6772 37.3682 26.3962 36.69 25.8961 36.1899C25.396 35.6898 24.7178 35.4088 24.0105 35.4088H20.0105V42.0755Z" stroke="black" stroke-width="2.66667" stroke-linecap="round" stroke-linejoin="round"/>
</svg>
