<svg width="254" height="60" viewBox="0 0 254 60" fill="none" xmlns="http://www.w3.org/2000/svg">
<path fill-rule="evenodd" clip-rule="evenodd" d="M31.0443 11.3609C33.5934 15.7821 35.2191 20.8049 35.7219 26.1907C36.4174 33.6299 34.7867 40.7499 31.4683 46.9187C32.9934 41.6523 33.5465 35.885 32.9901 29.9363C32.9465 29.4608 32.913 28.9886 32.856 28.5197L18.7426 19.0926C20.3297 22.645 21.3387 26.5184 21.7225 30.5967C22.351 37.3252 21.0621 43.7965 18.3638 49.5385C19.5755 44.6972 19.966 39.4728 19.4632 34.0971C19.4431 33.8887 19.4331 33.6786 19.413 33.4703L6.20627 26.4495C7.70124 29.57 8.63643 32.9846 8.9733 36.5824C9.79453 45.371 6.69062 53.5211 0.985596 59.9C57.3303 35.9472 59.5945 51.7214 59.5945 51.7214C59.5945 51.7214 63.8448 46.139 62.385 40.0979C60.4459 32.0638 31.0443 11.3609 31.0443 11.3609V11.3609ZM8.80565 17.7212C8.80565 17.7212 12.9872 23.1002 12.3084 27.5516L18.9017 29.1934C18.4124 26.8795 17.4906 24.1992 16.6861 22.06L8.80565 17.7212ZM21.2549 9.5711C21.2549 9.5711 25.5756 16.3449 24.8968 20.7913L32.2091 23.5791C31.4716 20.6249 30.9035 17.7951 29.6532 15.1636L21.2549 9.5711ZM34.5957 0.147459C34.5957 0.147459 39.5096 10.1561 38.6063 14.3286C38.6063 14.3286 51.4292 18.4876 52.8571 25.3437C52.8571 25.3437 59.8778 16.0796 34.5957 0.147459V0.147459ZM237.523 29.9264V22.1494H243.431C246.434 22.1494 248.216 23.5055 248.216 25.9858V26.053C248.216 28.404 246.367 29.9264 243.463 29.9264H237.523ZM233.462 41.6072H237.523V33.531H242.605L248.281 41.6072H253.1L246.862 32.8353C250.064 31.9111 252.339 29.6257 252.339 25.8212V25.7557C252.339 23.7358 251.65 22.0184 250.426 20.7598C248.943 19.3046 246.664 18.4442 243.761 18.4442H233.462V41.6072ZM218.782 41.6049H222.843V18.442H218.782V41.6049ZM194.07 32.4064L198.03 23.1405L202.024 32.4064H194.07ZM186.049 41.6071H190.21L192.585 36.0147H203.509L205.852 41.6071H210.141L199.978 18.2778H196.215L186.049 41.6071ZM161.403 38.2311C164.175 40.7131 167.509 41.9365 171.04 41.9365C175.892 41.9365 179.289 39.357 179.289 35.0215V34.9543C179.289 31.1162 176.782 29.3635 171.898 28.1721C167.442 27.1134 166.386 26.3169 166.386 24.5323V24.4668C166.386 22.9426 167.772 21.7193 170.149 21.7193C172.262 21.7193 174.34 22.5444 176.42 24.1021L178.599 21.0236C176.254 19.1381 173.583 18.1131 170.216 18.1131C165.629 18.1131 162.327 20.8572 162.327 24.8297V24.897C162.327 29.1636 165.101 30.6205 170.018 31.8119C174.305 32.805 175.232 33.699 175.232 35.3509V35.4164C175.232 37.1388 173.646 38.3303 171.139 38.3303C168.3 38.3303 166.058 37.2363 163.845 35.3189L161.403 38.2311V38.2311ZM138.704 29.9264V22.1494H144.612C147.615 22.1494 149.397 23.5055 149.397 25.9858V26.053C149.397 28.404 147.55 29.9264 144.644 29.9264H138.704ZM134.645 41.6072H138.704V33.531H143.787L149.464 41.6072H154.282L148.044 32.8353C151.245 31.9111 153.521 29.6257 153.521 25.8212V25.7557C153.521 23.7358 152.829 22.0184 151.609 20.7598C150.123 19.3046 147.847 18.4442 144.942 18.4442H134.645V41.6072ZM121.022 30.0909C121.022 34.5894 117.82 38.2292 113.236 38.2292C108.647 38.2292 105.381 34.5239 105.381 30.0237V29.9565C105.381 25.458 108.582 21.7863 113.169 21.7863C117.754 21.7863 121.022 25.5252 121.022 30.0237V30.0909V30.0909ZM101.122 30.0909C101.122 36.6093 106.073 42.0018 113.169 42.0018C120.262 42.0018 125.281 36.5421 125.281 30.0237V29.9565C125.281 23.4381 120.329 18.0456 113.236 18.0456C106.14 18.0456 101.122 23.5053 101.122 30.0237V30.0909V30.0909ZM72.9772 30.0909V30.0237C72.9772 23.4381 77.8945 18.0457 84.8917 18.0457C89.1487 18.0457 91.723 19.5345 93.9336 21.6535L91.3275 24.6649C89.4789 22.9441 87.4996 21.7863 84.8582 21.7863C80.4688 21.7863 77.2342 25.4261 77.2342 29.9565V30.0237C77.2342 34.5575 80.4353 38.2292 84.8582 38.2292C87.6973 38.2292 89.5124 37.105 91.4901 35.2532L94.0996 37.8999C91.6895 40.4155 89.0482 42.0018 84.7275 42.0018C77.9934 42.0018 72.9772 36.7421 72.9772 30.0909V30.0909Z" fill="white"/>
</svg>
