<svg width="24" height="25" viewBox="0 0 24 25" fill="none" xmlns="http://www.w3.org/2000/svg">
<path d="M11.105 9.27216L11.105 10.2722L13.105 10.2722L13.105 9.27216L11.105 9.27216ZM13.105 4.3965C13.105 3.84421 12.6573 3.3965 12.105 3.3965C11.5527 3.3965 11.105 3.84421 11.105 4.3965L13.105 4.3965ZM13.105 9.27216L13.105 4.3965L11.105 4.3965L11.105 9.27216L13.105 9.27216Z" fill="white"/>
<path d="M12.105 1.18225L12.105 2.19224" stroke="white" stroke-width="2" stroke-linecap="round"/>
<path d="M9.00024 10.1586C9.00024 9.76633 9.31824 9.44833 9.7105 9.44833H14.2897C14.682 9.44833 15 9.76633 15 10.1586V20.3966C15 22.0534 13.6569 23.3965 12.0001 23.3965C10.3433 23.3965 9.00024 22.0534 9.00024 20.3966V10.1586Z" stroke="white" stroke-width="2"/>
</svg>
