<svg width="25" height="25" viewBox="0 0 25 25" fill="none" xmlns="http://www.w3.org/2000/svg">
<path d="M12.5 8.24011V2.39648" stroke="white" stroke-linecap="round"/>
<circle cx="7.44038" cy="12.7785" r="1.59029" stroke="white"/>
<path d="M18.2893 12.2786C18.0131 12.2786 17.7893 12.5024 17.7893 12.7786C17.7893 13.0547 18.0131 13.2786 18.2893 13.2786V12.2786ZM19.0885 13.2786C19.3647 13.2786 19.5885 13.0547 19.5885 12.7786C19.5885 12.5024 19.3647 12.2786 19.0885 12.2786V13.2786ZM16.8718 14.4952C16.8718 14.7714 17.0956 14.9952 17.3718 14.9952C17.6479 14.9952 17.8718 14.7714 17.8718 14.4952H16.8718ZM17.8718 13.6118C17.8718 13.3357 17.6479 13.1118 17.3718 13.1118C17.0956 13.1118 16.8718 13.3357 16.8718 13.6118H17.8718ZM16.4543 13.2786C16.7304 13.2786 16.9543 13.0547 16.9543 12.7786C16.9543 12.5024 16.7304 12.2786 16.4543 12.2786V13.2786ZM15.655 12.2786C15.3789 12.2786 15.155 12.5024 15.155 12.7786C15.155 13.0547 15.3789 13.2786 15.655 13.2786V12.2786ZM17.8718 11.0619C17.8718 10.7857 17.6479 10.5619 17.3718 10.5619C17.0956 10.5619 16.8718 10.7857 16.8718 11.0619L17.8718 11.0619ZM16.8718 11.9453C16.8718 12.2214 17.0956 12.4453 17.3718 12.4453C17.6479 12.4453 17.8718 12.2214 17.8718 11.9453L16.8718 11.9453ZM18.2893 13.2786H19.0885V12.2786L18.2893 12.2786V13.2786ZM17.8718 14.4952V13.6118H16.8718V14.4952H17.8718ZM16.4543 12.2786H15.655V13.2786H16.4543V12.2786ZM16.8718 11.0619L16.8718 11.9453L17.8718 11.9453L17.8718 11.0619L16.8718 11.0619Z" fill="white"/>
<path d="M5.19021 9.05875L5.30151 10.0525L5.19021 9.05875ZM12.5 8.24005L12.6113 7.24626L12.5 7.2338L12.3887 7.24626L12.5 8.24005ZM6.91526 19.6517L7.62237 20.3588L6.91526 19.6517ZM4.56667 19.9143L4.03317 20.7601H4.03317L4.56667 19.9143ZM4.39095 19.8034L3.85745 20.6492H3.85745L4.39095 19.8034ZM19.8099 9.05875L19.9212 8.06496V8.06496L19.8099 9.05875ZM18.0848 19.6517L17.3777 20.3588L18.0848 19.6517ZM20.4334 19.9143L20.9669 20.7601L20.4334 19.9143ZM20.6092 19.8034L21.1427 20.6492L20.6092 19.8034ZM4.50781 18.2022V10.9401H2.50781V18.2022H4.50781ZM5.30151 10.0525L12.6113 9.23384L12.3887 7.24626L5.0789 8.06496L5.30151 10.0525ZM8.72065 16.4321L6.20816 18.9446L7.62237 20.3588L10.1349 17.8463L8.72065 16.4321ZM5.10017 19.0685L4.92445 18.9576L3.85745 20.6492L4.03317 20.7601L5.10017 19.0685ZM10.7664 15.5847C9.99909 15.5847 9.26322 15.8895 8.72065 16.4321L10.1349 17.8463C10.3024 17.6788 10.5295 17.5847 10.7664 17.5847V15.5847ZM4.50781 10.9401C4.50781 10.4853 4.84956 10.1032 5.30151 10.0525L5.0789 8.06496C3.61485 8.22893 2.50781 9.46688 2.50781 10.9401H4.50781ZM6.20816 18.9446C5.91311 19.2396 5.45309 19.2911 5.10017 19.0685L4.03317 20.7601C5.17641 21.4812 6.6666 21.3146 7.62237 20.3588L6.20816 18.9446ZM2.50781 18.2022C2.50781 19.1955 3.01735 20.1193 3.85745 20.6492L4.92445 18.9576C4.66511 18.794 4.50781 18.5089 4.50781 18.2022H2.50781ZM22.4923 18.2022V10.9401H20.4923V18.2022H22.4923ZM19.9212 8.06496L12.6113 7.24626L12.3887 9.23384L19.6986 10.0525L19.9212 8.06496ZM14.8652 17.8463L17.3777 20.3588L18.792 18.9446L16.2795 16.4321L14.8652 17.8463ZM20.9669 20.7601L21.1427 20.6492L20.0757 18.9576L19.8999 19.0685L20.9669 20.7601ZM14.2337 17.5847C14.4706 17.5847 14.6978 17.6788 14.8652 17.8463L16.2795 16.4321C15.7369 15.8895 15.001 15.5847 14.2337 15.5847V17.5847ZM22.4923 10.9401C22.4923 9.46688 21.3853 8.22893 19.9212 8.06496L19.6986 10.0525C20.1506 10.1032 20.4923 10.4853 20.4923 10.9401H22.4923ZM17.3777 20.3588C18.3335 21.3146 19.8237 21.4812 20.9669 20.7601L19.8999 19.0685C19.547 19.2911 19.087 19.2396 18.792 18.9446L17.3777 20.3588ZM20.4923 18.2022C20.4923 18.5089 20.335 18.794 20.0757 18.9576L21.1427 20.6492C21.9828 20.1193 22.4923 19.1955 22.4923 18.2022H20.4923ZM14.2337 15.5847H10.7664V17.5847H14.2337V15.5847Z" fill="white"/>
</svg>